# xmcd
#
# Track frame offsets:
# 150
# 12582
# 22076
# 35839
# 45642
# 55526
# 65587
# 75273
# 85375
# 99827
# 119440
# 130793
#
# Disc length: 1920 seconds
#
#
# Revision: 4
# Processed by: cddbd v1.5.1PL0 Copyright (c) Steve Scherf et al.
# Submitted via: FreeRIP 2.90 
#
DISCID=96077e0c
DTITLE=Roy Orbison - Roy Orbison
DYEAR=1997
DGENRE=
TTITLE0=Too Soon To Know
TTITLE1=Breakin' Up Is Breakin' My Heart
TTITLE2=Sweet Dreams
TTITLE3=Ooby Dooby (Feat. The Teen Queens)
TTITLE4=Claudette
TTITLE5=I'm Hurting
TTITLE6=Devil Doll
TTITLE7=(I'd Be) A Legend In Time
TTITLE8=Crawlin' Back
TTITLE9=Oh Pretty Woman
TTITLE10=Only The Lonely
TTITLE11=It's Over
EXTD=
EXTT0=Gibson
EXTT1=Orbison/Dees
EXTT2=Gibson
EXTT3=Moore/Penner
EXTT4=
EXTT5=Gibson
EXTT6=Phillips
EXTT7=Gibson
EXTT8=Orbison/Dees
EXTT9=Orbison/Dees
EXTT10=Orbison/Melson
EXTT11=Orbison/Dees
PLAYORDER=
